<svg xmlns="http://www.w3.org/2000/svg" width="24" height="24" viewBox="0 0 24 24">
    <g fill="none" fill-rule="evenodd">
        <g>
            <g>
                <path fill="#212B36" fill-rule="nonzero" d="M5.613 4.21l.094.083L12 10.585l6.293-6.292c.39-.39 1.024-.39 1.414 0 .36.36.388.928.083 1.32l-.083.094L13.415 12l6.292 6.293c.39.39.39 1.024 0 1.414-.36.36-.928.388-1.32.083l-.094-.083L12 13.415l-6.293 6.292c-.39.39-1.024.39-1.414 0-.36-.36-.388-.928-.083-1.32l.083-.094L10.585 12 4.293 5.707c-.39-.39-.39-1.024 0-1.414.36-.36.928-.388 1.32-.083z" transform="translate(-7888 -1355) translate(7888 1355)"/>
                <path fill="#FFF" fill-opacity="0" d="M0 24L24 24 24 0 0 0z" transform="translate(-7888 -1355) translate(7888 1355)"/>
            </g>
        </g>
    </g>
</svg>
