<svg xmlns="http://www.w3.org/2000/svg" width="12" height="12" viewBox="0 0 12 12">
    <g fill="none" fill-rule="evenodd">
        <g>
            <g>
                <path fill="#CB1400" fill-rule="nonzero" d="M6 0c1.603 0 3.11.624 4.243 1.757C11.376 2.891 12 4.397 12 6c0 1.603-.624 3.11-1.757 4.243C9.109 11.376 7.603 12 6 12c-1.603 0-3.11-.624-4.243-1.757C.624 9.109 0 7.603 0 6c0-1.603.624-3.11 1.757-4.243C2.891.624 4.397 0 6 0zm0 8.25c-.345 0-.625.28-.625.625s.28.625.625.625.625-.28.625-.625S6.345 8.25 6 8.25zm.012-5.75c-.276 0-.5.224-.5.5v4l.004.058c.029.249.24.442.496.442.277 0 .5-.224.5-.5V3l-.003-.058c-.029-.249-.24-.442-.497-.442z" transform="translate(-7373 -2244) translate(7373 2244)"/>
                <path fill="#FFF" fill-opacity="0" d="M0 12L12 12 12 0 0 0z" transform="translate(-7373 -2244) translate(7373 2244)"/>
            </g>
        </g>
    </g>
</svg>
